<?xml version="1.0" encoding="utf-8"?>
<!-- Generator: Adobe Illustrator 21.1.0, SVG Export Plug-In . SVG Version: 6.00 Build 0)  -->
<svg version="1.1" id="Layer_1" xmlns="http://www.w3.org/2000/svg" xmlns:xlink="http://www.w3.org/1999/xlink" x="0px" y="0px"
	 viewBox="0 0 10.2 13.4" style="enable-background:new 0 0 10.2 13.4;" xml:space="preserve">
<path d="M9,4.5H8.3V3.2C8.3,1.4,6.9,0,5.1,0S1.9,1.4,1.9,3.2v1.3H1.3C0.6,4.5,0,5.1,0,5.8v6.4c0,0.7,0.6,1.3,1.3,1.3H9
	c0.7,0,1.3-0.6,1.3-1.3V5.8C10.2,5.1,9.7,4.5,9,4.5z M5.1,10.2c-0.7,0-1.3-0.6-1.3-1.3c0-0.7,0.6-1.3,1.3-1.3S6.4,8.3,6.4,9
	C6.4,9.7,5.8,10.2,5.1,10.2z M7.1,4.5h-4V3.2c0-1.1,0.9-2,2-2s2,0.9,2,2V4.5z"/>
</svg>
